<?xml version="1.0" encoding="UTF-8"?>
<svg xmlns="http://www.w3.org/2000/svg" xmlns:xlink="http://www.w3.org/1999/xlink" width="600pt" height="180pt" viewBox="0 0 600 180" version="1.1">
<g id="surface1">
<path style=" stroke:none;fill-rule:nonzero;fill:rgb(48.736572%,66.96167%,18.437195%);fill-opacity:1;" d="M 89.621094 134.25 L 145.535156 77.796875 L 69.621094 1.664062 L 48.863281 22.476562 L 105.113281 78.886719 L 49.902344 134.25 L 69.824219 154.238281 L 89.617188 134.25 L 89.621094 134.25 "/>
<path style=" stroke:none;fill-rule:nonzero;fill:rgb(12.239075%,40.000916%,20.985413%);fill-opacity:1;" d="M 118.488281 1.664062 L 97.726562 22.480469 L 151.363281 76.261719 L 151.363281 34.632812 L 118.488281 1.664062 "/>
<path style=" stroke:none;fill-rule:nonzero;fill:rgb(12.239075%,40.000916%,20.985413%);fill-opacity:1;" d="M 98.769531 134.25 L 118.691406 154.238281 L 151.363281 121.246094 L 151.363281 81.511719 L 98.769531 134.25 "/>
<path style=" stroke:none;fill-rule:nonzero;fill:rgb(12.239075%,40.000916%,20.985413%);fill-opacity:1;" d="M 56.246094 78.886719 L 1.039062 134.25 L 20.96875 154.238281 L 96.667969 77.792969 L 20.753906 1.664062 L 0 22.480469 L 56.246094 78.886719 "/>
<path style=" stroke:none;fill-rule:nonzero;fill:rgb(16.876221%,57.618713%,25.483704%);fill-opacity:1;" d="M 20.753906 1.664062 L 41.511719 22.480469 L 48.867188 22.480469 L 69.621094 1.664062 L 20.753906 1.664062 "/>
<path style=" stroke:none;fill-rule:nonzero;fill:rgb(16.876221%,57.618713%,25.483704%);fill-opacity:1;" d="M 89.621094 134.25 L 69.824219 154.238281 L 118.695312 154.238281 L 98.769531 134.25 L 89.621094 134.25 "/>
<path style=" stroke:none;fill-rule:nonzero;fill:rgb(29.434204%,43.211365%,52.674866%);fill-opacity:1;" d="M 89.617188 134.25 L 69.824219 154.238281 L 89.621094 134.25 L 89.617188 134.25 "/>
<path style=" stroke:none;fill-rule:nonzero;fill:rgb(12.239075%,40.000916%,20.985413%);fill-opacity:1;" d="M 177.011719 60.355469 L 177.011719 95.347656 L 194.398438 77.796875 L 177.011719 60.355469 "/>
<path style=" stroke:none;fill-rule:nonzero;fill:rgb(18.435669%,18.890381%,19.250488%);fill-opacity:1;" d="M 197.695312 25.949219 C 197.695312 18.167969 193.53125 14.269531 185.21875 14.269531 C 177.046875 14.269531 172.96875 18.167969 172.96875 25.949219 L 172.96875 129.953125 C 172.96875 137.980469 177.046875 142.003906 185.21875 142.003906 C 193.53125 142.003906 197.695312 137.980469 197.695312 129.953125 Z M 155.40625 25.949219 C 155.40625 8.644531 165.34375 0 185.21875 0 C 205.242188 0 215.253906 8.644531 215.253906 25.949219 L 215.253906 129.953125 C 215.253906 147.25 205.242188 155.898438 185.21875 155.898438 C 165.34375 155.898438 155.40625 147.25 155.40625 129.953125 L 155.40625 25.949219 "/>
<path style=" stroke:none;fill-rule:nonzero;fill:rgb(18.435669%,18.890381%,19.250488%);fill-opacity:1;" d="M 263.773438 61.539062 C 263.773438 57.957031 262.96875 55.460938 261.351562 54.039062 C 259.730469 52.617188 257.144531 51.90625 253.605469 51.90625 C 250.988281 51.90625 248.5625 52.527344 246.324219 53.753906 C 244.097656 54.992188 242.433594 56.847656 241.363281 59.316406 L 241.363281 135.695312 C 242.433594 138.167969 244.097656 140.023438 246.324219 141.253906 C 248.5625 142.492188 250.988281 143.109375 253.605469 143.109375 C 257.144531 143.109375 259.730469 142.402344 261.351562 140.972656 C 262.96875 139.558594 263.773438 137.175781 263.773438 133.835938 Z M 225.414062 180 L 225.414062 39.484375 L 238.828125 39.484375 C 239.285156 42.328125 239.515625 45.234375 239.515625 48.195312 C 241.210938 44.988281 243.589844 42.539062 246.675781 40.871094 C 249.761719 39.210938 253.914062 38.367188 259.152344 38.367188 C 265.773438 38.367188 270.824219 40.105469 274.289062 43.5625 C 277.757812 47.019531 279.488281 52.457031 279.488281 59.875 L 279.488281 134.953125 C 279.488281 142.738281 277.871094 148.175781 274.636719 151.269531 C 271.398438 154.355469 266.089844 155.902344 258.691406 155.902344 C 254.835938 155.902344 251.417969 155.253906 248.410156 153.949219 C 245.402344 152.660156 243.050781 150.953125 241.363281 148.855469 L 241.363281 180 L 225.414062 180 "/>
<path style=" stroke:none;fill-rule:nonzero;fill:rgb(18.435669%,18.890381%,19.250488%);fill-opacity:1;" d="M 324.433594 61.171875 C 324.433594 54.378906 320.886719 50.980469 313.804688 50.980469 C 307.179688 50.980469 303.867188 54.378906 303.867188 61.171875 L 303.867188 88.796875 L 324.433594 88.796875 Z M 324.433594 107.519531 L 339.457031 107.519531 L 339.457031 132.730469 C 339.457031 148.175781 330.902344 155.894531 313.804688 155.894531 C 297.320312 155.894531 289.074219 148.175781 289.074219 132.730469 L 289.074219 61.171875 C 289.074219 53.382812 291.191406 47.523438 295.433594 43.5625 C 299.667969 39.609375 305.789062 37.628906 313.804688 37.628906 C 330.902344 37.628906 339.457031 45.476562 339.457031 61.171875 L 339.457031 98.058594 L 303.867188 98.058594 L 303.867188 132.730469 C 303.867188 139.53125 307.179688 142.921875 313.804688 142.921875 C 320.886719 142.921875 324.433594 139.53125 324.433594 132.730469 L 324.433594 107.519531 "/>
<path style=" stroke:none;fill-rule:nonzero;fill:rgb(18.435669%,18.890381%,19.250488%);fill-opacity:1;" d="M 387.003906 154.234375 L 387.003906 59.507812 C 387.003906 56.164062 386.308594 53.792969 384.925781 52.367188 C 383.539062 50.945312 381.152344 50.234375 377.761719 50.234375 C 375.453125 50.234375 373.140625 50.789062 370.828125 51.90625 C 368.519531 53.019531 366.75 54.808594 365.519531 57.277344 L 365.519531 154.234375 L 349.574219 154.234375 L 349.574219 39.484375 L 362.976562 39.484375 C 363.4375 42.328125 363.667969 45.234375 363.667969 48.195312 C 365.816406 44.988281 368.675781 42.414062 372.214844 40.503906 C 375.757812 38.585938 379.757812 37.628906 384.230469 37.628906 C 390.703125 37.628906 395.441406 39.300781 398.445312 42.636719 C 401.449219 45.972656 402.945312 51.351562 402.945312 58.761719 L 402.945312 154.234375 L 387.003906 154.234375 "/>
<path style=" stroke:none;fill-rule:nonzero;fill:rgb(12.239075%,40.000916%,20.985413%);fill-opacity:1;" d="M 455.402344 154.234375 L 455.402344 83.601562 L 430.902344 83.601562 L 430.902344 154.234375 L 413.347656 154.234375 L 413.347656 1.664062 L 430.902344 1.664062 L 430.902344 69.703125 L 455.402344 69.703125 L 455.402344 1.664062 L 472.960938 1.664062 L 472.960938 154.234375 L 455.402344 154.234375 "/>
<path style=" stroke:none;fill-rule:nonzero;fill:rgb(12.239075%,40.000916%,20.985413%);fill-opacity:1;" d="M 483.839844 154.230469 L 501.402344 154.230469 L 501.402344 1.660156 L 483.839844 1.660156 Z M 483.839844 154.230469 "/>
<path style=" stroke:none;fill-rule:nonzero;fill:rgb(12.239075%,40.000916%,20.985413%);fill-opacity:1;" d="M 583.59375 154.234375 L 583.59375 108.070312 C 583.59375 96.832031 583.632812 85.828125 583.707031 75.074219 C 583.789062 64.324219 583.902344 53.328125 584.054688 42.078125 L 563.492188 154.234375 L 548.011719 154.234375 L 527.675781 42.078125 C 527.820312 53.328125 527.941406 64.324219 528.019531 75.074219 C 528.097656 85.828125 528.140625 96.832031 528.140625 108.070312 L 528.140625 154.234375 L 511.960938 154.234375 L 511.960938 1.664062 L 535.53125 1.664062 L 555.636719 120.863281 L 575.742188 1.664062 L 600 1.664062 L 600 154.234375 L 583.59375 154.234375 "/>
</g>
</svg>
